# xmcd
#
# Track frame offsets:
#	150
#	12452
#	24856
#	36920
#	49469
#	61298
#	74603
#	86875
#	99421
#	110002
#	120087
#	133475
#	150573
#
# Disc length: 2207 seconds
#
# Revision: 1
# Processed by: cddbd v1.5.2PL0 Copyright (c) Steve Scherf et al.
# Submitted via: audiograbber 1.83.01
#
DISCID=b3089d0d
DTITLE=Percy Sledge - vol2 disc 2
DYEAR=1900
DGENRE=
TTITLE0=Sudden stop
TTITLE1=Making love the dark end of the street
TTITLE2=My adorable one
TTITLE3=You're all around me
TTITLE4=Today I started loving you again
TTITLE5=She thinks I still care
TTITLE6=He'll have to go
TTITLE7=Yuo're gonna love yourself in the morning
TTITLE8=Hey good looking
TTITLE9=Kiss an angel good morning
TTITLE10=I still miss someone
TTITLE11=For the good times
TTITLE12=Keep the fire burning
EXTD=
EXTT0=
EXTT1=
EXTT2=
EXTT3=
EXTT4=
EXTT5=
EXTT6=
EXTT7=
EXTT8=
EXTT9=
EXTT10=
EXTT11=
EXTT12=
PLAYORDER=
